STARTFONT 2.1
FONT -Monotype-Book Antiqua-Regular-R-Normal--33-240-100-100-P-157-iso8859-9
SIZE 24 100 100
FONTBOUNDINGBOX 39 41 -4 -10

STARTPROPERTIES 24
FOUNDRY "Monotype"
FAMILY_NAME "Book Antiqua"
WEIGHT_NAME "Regular"
SLANT "R"
SETWIDTH_NAME "Normal"
ADD_STYLE_NAME ""
PIXEL_SIZE 33
POINT_SIZE 240
RESOLUTION_X 100
RESOLUTION_Y 100
SPACING "P"
AVERAGE_WIDTH 157
CHARSET_REGISTRY "iso8859"
CHARSET_ENCODING "9"
FACE_NAME "Book Antiqua ISO Latin5"
_DEC_DEVICE_FONTNAMES "PS=bookantiqua-lat5"
COPYRIGHT "Copyright (c) 1993 Monotype Typography Ltd."
CAP_HEIGHT 28
X_HEIGHT 19
WEIGHT 10
QUAD_WIDTH 20
DEFAULT_CHAR 160
FONT_DESCENT 10
FONT_ASCENT 31
ENDPROPERTIES

CHARS 191

STARTCHAR space
ENCODING 32
SWIDTH 250 0
DWIDTH 8 0
BBX 0 0 0 0
BITMAP
ENDCHAR

STARTCHAR exclam
ENCODING 33
SWIDTH 278 0
DWIDTH 9 0
BBX 4 23 3 0
BITMAP
30
F0
F0
F0
F0
70
60
60
60
60
60
60
60
60
60
60
20
00
00
60
F0
F0
60
ENDCHAR

STARTCHAR quotedbl
ENCODING 34
SWIDTH 371 0
DWIDTH 12 0
BBX 9 9 2 14
BITMAP
E380
E380
E380
E380
E380
E380
4100
4100
4100
ENDCHAR

STARTCHAR numbersign
ENCODING 35
SWIDTH 606 0
DWIDTH 20 0
BBX 18 23 1 0
BITMAP
030700
030600
030600
070600
060600
060600
060E00
7FFFC0
7FFFC0
060C00
0E0C00
0C0C00
0C0C00
0C1C00
FFFF80
FFFF80
0C1800
1C1800
181800
183800
183000
183000
183000
ENDCHAR

STARTCHAR dollar
ENCODING 36
SWIDTH 500 0
DWIDTH 17 0
BBX 15 28 1 -3
BITMAP
0100
0100
03C0
1FF8
3118
7108
6108
E108
E100
E100
F100
7900
7FE0
3FF8
03FC
013E
010E
010E
010E
410E
410C
410C
E118
F9F0
1FC0
0100
0100
0100
ENDCHAR

STARTCHAR percent
ENCODING 37
SWIDTH 840 0
DWIDTH 28 0
BBX 20 25 4 -1
BITMAP
1E0180
630100
618300
C18200
C18600
C18400
C18C00
C18800
631800
631000
1C3000
002000
004000
0043C0
008C60
008C30
011830
011830
021830
021830
041830
041C60
080C60
080380
100000
ENDCHAR

STARTCHAR ampersand
ENCODING 38
SWIDTH 778 0
DWIDTH 26 0
BBX 23 23 2 0
BITMAP
00E000
03F000
067000
0C3000
0C3000
0C7000
0C6000
0EC000
0F8000
070000
0F07FE
3B8FFE
3380C0
61C0C0
E0E0C0
E0F0C0
E07980
E03D00
F01E00
700F80
7C3FE2
3FF1FC
0FC0F8
ENDCHAR

STARTCHAR quoteright
ENCODING 39
SWIDTH 278 0
DWIDTH 9 0
BBX 6 9 1 15
BITMAP
1C
38
38
30
70
60
C0
C0
80
ENDCHAR

STARTCHAR parenleft
ENCODING 40
SWIDTH 333 0
DWIDTH 11 0
BBX 8 33 2 -9
BITMAP
01
02
06
0C
1C
18
38
30
70
70
60
60
E0
E0
E0
E0
E0
E0
E0
E0
60
60
70
70
30
30
38
18
0C
0C
06
03
01
ENDCHAR

STARTCHAR parenright
ENCODING 41
SWIDTH 333 0
DWIDTH 11 0
BBX 8 33 1 -9
BITMAP
80
40
60
30
38
18
1C
0C
0E
0E
06
06
07
07
07
07
07
07
07
07
07
06
06
0E
0E
0C
1C
18
30
30
60
C0
80
ENDCHAR

STARTCHAR asterisk
ENCODING 42
SWIDTH 389 0
DWIDTH 13 0
BBX 11 11 1 12
BITMAP
0E00
0E00
0600
C440
F5E0
FFE0
0C00
1A00
3300
7180
2180
ENDCHAR

STARTCHAR plus
ENCODING 43
SWIDTH 606 0
DWIDTH 20 0
BBX 16 16 2 3
BITMAP
0180
0180
0180
0180
0180
0180
0180
FFFF
FFFF
0180
0180
0180
0180
0180
0180
0180
ENDCHAR

STARTCHAR comma
ENCODING 44
SWIDTH 250 0
DWIDTH 8 0
BBX 7 9 0 -5
BITMAP
1E
1C
1C
18
38
30
60
60
80
ENDCHAR

STARTCHAR minus
ENCODING 45
SWIDTH 606 0
DWIDTH 20 0
BBX 16 2 2 10
BITMAP
FFFF
FFFF
ENDCHAR

STARTCHAR period
ENCODING 46
SWIDTH 250 0
DWIDTH 8 0
BBX 4 4 2 0
BITMAP
60
F0
F0
60
ENDCHAR

STARTCHAR slash
ENCODING 47
SWIDTH 606 0
DWIDTH 20 0
BBX 16 31 1 -7
BITMAP
0007
000E
000C
000C
001C
0018
0038
0030
0030
0070
0060
00E0
00C0
00C0
0180
0180
0380
0300
0700
0600
0600
0E00
0C00
1C00
1800
1800
3000
3000
7000
6000
E000
ENDCHAR

STARTCHAR zero
ENCODING 48
SWIDTH 500 0
DWIDTH 17 0
BBX 15 23 1 0
BITMAP
07E0
1C70
3038
301C
701C
600C
600E
E00E
E00E
E00E
E00E
E00E
E00E
E00E
E00E
E00E
E00C
700C
701C
7018
3838
1C70
0FC0
ENDCHAR

STARTCHAR one
ENCODING 49
SWIDTH 500 0
DWIDTH 17 0
BBX 13 23 1 0
BITMAP
0080
0380
1F80
FB80
C380
0380
0380
0380
0380
0380
0380
0380
0380
0380
0380
0380
0380
0380
0380
0380
0380
0780
3FF8
ENDCHAR

STARTCHAR two
ENCODING 50
SWIDTH 500 0
DWIDTH 17 0
BBX 15 23 1 0
BITMAP
07C0
1FF0
3FF8
7078
603C
401C
401C
001C
001C
0018
0038
0030
0060
00C0
0180
0300
0600
0C00
1800
3000
7FFE
FFFE
FFFE
ENDCHAR

STARTCHAR three
ENCODING 51
SWIDTH 500 0
DWIDTH 17 0
BBX 15 23 0 0
BITMAP
0FC0
3FF0
70F0
6038
4038
4038
0030
0030
0060
00C0
0FF0
0C3C
001C
000E
000E
000E
000E
C00C
400C
4018
6030
7860
3F80
ENDCHAR

STARTCHAR four
ENCODING 52
SWIDTH 500 0
DWIDTH 17 0
BBX 16 23 0 0
BITMAP
0010
0070
00F0
00F0
01B0
0170
0270
0670
0470
0870
1870
1070
3070
2070
4070
FFFF
FFFF
0070
0070
0070
0070
00F8
07FF
ENDCHAR

STARTCHAR five
ENCODING 53
SWIDTH 500 0
DWIDTH 17 0
BBX 15 23 0 0
BITMAP
3FFC
3FFC
3FFC
3000
3000
3000
3000
3000
37F0
37F8
387C
201C
000E
000E
000E
000E
000C
800C
C01C
4018
6070
3FC0
1F00
ENDCHAR

STARTCHAR six
ENCODING 54
SWIDTH 500 0
DWIDTH 17 0
BBX 14 23 1 0
BITMAP
0030
00E0
0380
0600
0C00
1800
3800
3000
7000
73E0
E7F0
F878
F03C
E01C
E01C
E01C
E01C
E01C
6018
7018
3030
1860
0F80
ENDCHAR

STARTCHAR seven
ENCODING 55
SWIDTH 500 0
DWIDTH 17 0
BBX 15 23 1 0
BITMAP
FFFE
7FFE
7FF6
400C
4008
4018
4010
0030
0020
0060
00C0
00C0
0180
0180
0300
0700
0600
0E00
0C00
1C00
3800
3800
7800
ENDCHAR

STARTCHAR eight
ENCODING 56
SWIDTH 500 0
DWIDTH 17 0
BBX 14 23 1 0
BITMAP
0FC0
3870
6038
6018
E018
E018
E018
7030
7C60
3FC0
1FC0
0FF0
31F8
607C
E03C
C01C
C01C
C01C
C018
E018
6030
3860
1F80
ENDCHAR

STARTCHAR nine
ENCODING 57
SWIDTH 500 0
DWIDTH 17 0
BBX 15 23 1 0
BITMAP
0FE0
1870
3018
701C
600C
E00E
E00E
E00E
E00E
F01E
701E
782E
3FCE
0F9C
001C
0018
0038
0070
00E0
01C0
0780
1E00
7000
ENDCHAR

STARTCHAR colon
ENCODING 58
SWIDTH 250 0
DWIDTH 8 0
BBX 4 15 2 0
BITMAP
60
F0
F0
60
00
00
00
00
00
00
00
60
F0
F0
60
ENDCHAR

STARTCHAR semicolon
ENCODING 59
SWIDTH 250 0
DWIDTH 8 0
BBX 6 20 1 -5
BITMAP
18
3C
3C
18
00
00
00
00
00
00
00
0C
3C
38
38
30
70
60
C0
80
ENDCHAR

STARTCHAR less
ENCODING 60
SWIDTH 606 0
DWIDTH 20 0
BBX 16 17 2 3
BITMAP
0001
0007
001F
007C
01F0
0FC0
3F00
FC00
E000
F800
3E00
0F80
03F0
00FC
001F
0007
0001
ENDCHAR

STARTCHAR equal
ENCODING 61
SWIDTH 606 0
DWIDTH 20 0
BBX 16 8 2 7
BITMAP
FFFF
FFFF
0000
0000
0000
0000
FFFF
FFFF
ENDCHAR

STARTCHAR greater
ENCODING 62
SWIDTH 606 0
DWIDTH 20 0
BBX 16 17 2 3
BITMAP
8000
E000
F800
3E00
0F80
03E0
00FC
003F
0007
001F
007C
03F0
0FC0
3F00
F800
E000
8000
ENDCHAR

STARTCHAR question
ENCODING 63
SWIDTH 444 0
DWIDTH 15 0
BBX 12 23 1 0
BITMAP
1F80
7FE0
61E0
40F0
C070
0070
0070
00E0
00E0
01C0
0380
0700
0E00
0C00
0800
0800
0400
0000
0000
0C00
1E00
1E00
0C00
ENDCHAR

STARTCHAR at
ENCODING 64
SWIDTH 747 0
DWIDTH 25 0
BBX 25 27 0 -4
BITMAP
003F8000
00C06000
03001800
06000400
0C000400
18000200
30000200
200E6100
6031E100
4060C100
C0C0C100
C0C0C100
81818100
83818100
83038200
83038200
83050400
C38B0800
43F31080
41C1E080
60000100
20000200
10000600
08000C00
06001000
01C0E000
003F0000
ENDCHAR

STARTCHAR A
ENCODING 65
SWIDTH 778 0
DWIDTH 26 0
BBX 24 23 1 0
BITMAP
001800
001800
001C00
003C00
002C00
006E00
004E00
00C700
00C700
018780
018380
0303C0
0301C0
0201C0
07FFE0
0400E0
0C00F0
0C0070
180078
180038
38003C
38003C
FE01FF
ENDCHAR

STARTCHAR B
ENCODING 66
SWIDTH 611 0
DWIDTH 20 0
BBX 18 23 1 0
BITMAP
FFFE00
1C1F00
1C0780
1C0380
1C0380
1C0380
1C0380
1C0700
1C0E00
1C3C00
1FFC00
1C1F00
1C0780
1C03C0
1C01C0
1C01C0
1C01C0
1C01C0
1C03C0
1C0380
1C0700
1C1E00
7FF800
ENDCHAR

STARTCHAR C
ENCODING 67
SWIDTH 709 0
DWIDTH 23 0
BBX 21 23 2 0
BITMAP
00FFE0
03C0F8
0F0038
1C0018
380010
700010
700000
F00000
E00000
E00000
E00000
E00000
E00000
F00000
F00000
700000
780000
3C0000
3E0000
1F0008
07C038
03FFE0
003F00
ENDCHAR

STARTCHAR D
ENCODING 68
SWIDTH 774 0
DWIDTH 26 0
BBX 23 23 1 0
BITMAP
FFFF80
3E07E0
1C00F0
1C0078
1C003C
1C001C
1C001E
1C001E
1C000E
1C000E
1C000E
1C000E
1C000E
1C000E
1C001E
1C001C
1C001C
1C0038
1C0038
1C0070
1C01E0
1E0780
7FFE00
ENDCHAR

STARTCHAR E
ENCODING 69
SWIDTH 611 0
DWIDTH 20 0
BBX 18 23 1 0
BITMAP
FFFFC0
3FFF80
1C0080
1C0080
1C0080
1C0080
1C0000
1C0000
1C0200
1C0200
1C0600
1FFE00
1C0600
1C0200
1C0200
1C0000
1C0000
1C0000
1C0040
1C0040
1C00C0
1C01C0
FFFFC0
ENDCHAR

STARTCHAR F
ENCODING 70
SWIDTH 556 0
DWIDTH 18 0
BBX 16 23 1 0
BITMAP
FFFF
3FFF
1C03
1C03
1C03
1C00
1C00
1C00
1C04
1C04
1C0C
1FFC
1C0C
1C04
1C04
1C00
1C00
1C00
1C00
1C00
1C00
3E00
FF80
ENDCHAR

STARTCHAR G
ENCODING 71
SWIDTH 763 0
DWIDTH 25 0
BBX 23 23 1 0
BITMAP
00FFE0
03C0FC
0F001C
1C000C
38000C
780008
700000
700000
E00000
E00000
E00000
E00000
E00000
E00000
F001FE
F0001C
70001C
78001C
3C001C
1E001C
0F001C
07E0FC
00FFC0
ENDCHAR

STARTCHAR H
ENCODING 72
SWIDTH 832 0
DWIDTH 27 0
BBX 25 23 1 0
BITMAP
FF80FF80
1C001C00
1C001C00
1C001C00
1C001C00
1C001C00
1C001C00
1C001C00
1C001C00
1C001C00
1FFFFC00
1C001C00
1C001C00
1C001C00
1C001C00
1C001C00
1C001C00
1C001C00
1C001C00
1C001C00
1C001C00
1C003E00
FF80FF80
ENDCHAR

STARTCHAR I
ENCODING 73
SWIDTH 337 0
DWIDTH 11 0
BBX 9 23 1 0
BITMAP
FF80
1C00
1C00
1C00
1C00
1C00
1C00
1C00
1C00
1C00
1C00
1C00
1C00
1C00
1C00
1C00
1C00
1C00
1C00
1C00
1C00
3C00
FF80
ENDCHAR

STARTCHAR J
ENCODING 74
SWIDTH 333 0
DWIDTH 11 0
BBX 10 29 0 -6
BITMAP
7FC0
0E00
0E00
0E00
0E00
0E00
0E00
0E00
0E00
0E00
0E00
0E00
0E00
0E00
0E00
0E00
0E00
0E00
0E00
0E00
0E00
0E00
0E00
0E00
0C00
0C00
9800
F000
E000
ENDCHAR

STARTCHAR K
ENCODING 75
SWIDTH 726 0
DWIDTH 24 0
BBX 23 23 1 0
BITMAP
FF80FC
1C00E0
1C01C0
1C0300
1C0600
1C0C00
1C1800
1C3000
1C6000
1CC000
1D8000
1FE000
1DF000
1CF800
1C7C00
1C3E00
1C1F00
1C0F80
1C07C0
1C03E0
1C00F0
1C0078
FF803E
ENDCHAR

STARTCHAR L
ENCODING 76
SWIDTH 611 0
DWIDTH 20 0
BBX 18 23 1 0
BITMAP
FF8000
1C0000
1C0000
1C0000
1C0000
1C0000
1C0000
1C0000
1C0000
1C0000
1C0000
1C0000
1C0000
1C0000
1C0000
1C0000
1C0000
1C0040
1C0040
1C0040
1C00C0
3FFFC0
7FFFC0
ENDCHAR

STARTCHAR M
ENCODING 77
SWIDTH 946 0
DWIDTH 31 0
BBX 29 23 1 0
BITMAP
FC0001F8
3E0003C0
1E0003C0
1E0006C0
170006C0
17000DC0
17800DC0
138009C0
13C019C0
11C011C0
11E031C0
10E021C0
10F061C0
107041C0
1078C1C0
103881C0
103D81C0
101D01C0
101F01C0
100F01C0
100E01C0
380601E0
FE040FF8
ENDCHAR

STARTCHAR N
ENCODING 78
SWIDTH 831 0
DWIDTH 27 0
BBX 25 23 1 0
BITMAP
FC003F80
3E000E00
1E000400
1F000400
17800400
13C00400
11C00400
11E00400
10F00400
10780400
103C0400
103C0400
101E0400
100F0400
10078400
1003C400
1003C400
1001E400
1000F400
10007C00
10003C00
38001C00
FE001E00
ENDCHAR

STARTCHAR O
ENCODING 79
SWIDTH 786 0
DWIDTH 26 0
BBX 24 23 1 0
BITMAP
01FF80
0783E0
0E0078
1C003C
38001E
70001E
70000F
E0000F
E00007
E00007
E00007
E00007
E00007
F00007
F00007
F0000E
78000E
78000C
3C001C
1E0038
0F0070
07C1C0
01FF00
ENDCHAR

STARTCHAR P
ENCODING 80
SWIDTH 604 0
DWIDTH 20 0
BBX 18 23 1 0
BITMAP
FFFE00
1E0F80
1C03C0
1C03C0
1C01C0
1C01C0
1C01C0
1C01C0
1C0380
1C0300
1C0E00
1CF800
1C0000
1C0000
1C0000
1C0000
1C0000
1C0000
1C0000
1C0000
1C0000
3C0000
FF8000
ENDCHAR

STARTCHAR Q
ENCODING 81
SWIDTH 786 0
DWIDTH 26 0
BBX 24 28 1 -5
BITMAP
01FF80
0783E0
0E0078
1C003C
38001E
70001E
70000F
E0000F
E00007
E00007
E00007
E00007
E00007
F00007
F00007
F0000E
78000E
78000C
3C001C
1E0038
1F0070
07E3C0
01FF00
001800
007F00
00DFE0
0083FF
00007E
ENDCHAR

STARTCHAR R
ENCODING 82
SWIDTH 668 0
DWIDTH 22 0
BBX 21 23 1 0
BITMAP
FFFE00
3E0F80
1C03C0
1C03C0
1C01C0
1C01C0
1C01C0
1C03C0
1C0380
1C0700
1C3C00
1DF000
1C7800
1C7800
1C3C00
1C1E00
1C0F00
1C0700
1C0780
1C03C0
1C01E0
1E00F0
FF80F8
ENDCHAR

STARTCHAR S
ENCODING 83
SWIDTH 525 0
DWIDTH 17 0
BBX 17 23 0 0
BITMAP
0FFC00
1C1F00
300600
700200
600200
E00200
E00000
E00000
F00000
7C0000
7FF800
1FFE00
03FF00
000F80
000780
000380
000380
400380
400300
400600
600E00
783800
3FE000
ENDCHAR

STARTCHAR T
ENCODING 84
SWIDTH 613 0
DWIDTH 20 0
BBX 19 23 1 0
BITMAP
FFFFE0
C0E060
80E060
80E020
80E020
00E000
00E000
00E000
00E000
00E000
00E000
00E000
00E000
00E000
00E000
00E000
00E000
00E000
00E000
00E000
00E000
00E000
07FC00
ENDCHAR

STARTCHAR U
ENCODING 85
SWIDTH 778 0
DWIDTH 26 0
BBX 24 23 1 0
BITMAP
FF80FF
1E001C
1C0008
1C0008
1C0008
1C0008
1C0008
1C0008
1C0008
1C0008
1C0008
1C0008
1C0008
1C0008
1C0008
1C0008
1C0008
1C0018
1E0018
0F0030
0FC0E0
03FFC0
00FF00
ENDCHAR

STARTCHAR V
ENCODING 86
SWIDTH 722 0
DWIDTH 24 0
BBX 23 23 0 0
BITMAP
FF80FE
1C001C
1C0018
1E0018
0E0030
0F0030
070020
070060
078040
0380C0
03C0C0
01C080
01C180
00E100
00E300
00F300
007200
007600
003C00
003C00
003C00
001800
001800
ENDCHAR

STARTCHAR W
ENCODING 87
SWIDTH 1000 0
DWIDTH 33 0
BBX 33 23 0 0
BITMAP
FF80C03F80
3C00C00600
1C00E00C00
1C01E00C00
1E01E00C00
0E03700800
0E03701800
0E02701800
0E06781000
0704381000
070C383000
070C1C2000
07081C2000
07181C6000
03900E6000
03B00E4000
03B00FC000
03E007C000
01E0078000
01C0038000
01C0038000
01C0038000
0080010000
ENDCHAR

STARTCHAR X
ENCODING 88
SWIDTH 667 0
DWIDTH 22 0
BBX 21 23 1 0
BITMAP
FC00F0
7C00C0
1E0180
0F0300
070300
078600
038C00
03C800
01F800
00F000
00F000
007000
00F800
01BC00
011C00
031E00
060E00
0C0F00
0C0780
180380
3003C0
7001E0
E001F8
ENDCHAR

STARTCHAR Y
ENCODING 89
SWIDTH 667 0
DWIDTH 22 0
BBX 21 23 0 0
BITMAP
780018
FC0038
1E0070
0F0060
0700C0
0780C0
038180
01C100
01E300
00E600
00F600
007C00
003800
003800
003800
003800
003800
003800
003800
003800
003800
003C00
01FF00
ENDCHAR

STARTCHAR Z
ENCODING 90
SWIDTH 667 0
DWIDTH 22 0
BBX 20 23 1 0
BITMAP
3FFFF0
3801E0
2003C0
2003C0
200780
000F00
000E00
001E00
003C00
007800
007000
00F000
01E000
03C000
038000
078000
0F0000
0E0010
1E0010
3C0030
780030
F00070
FFFFF0
ENDCHAR

STARTCHAR bracketleft
ENCODING 91
SWIDTH 333 0
DWIDTH 11 0
BBX 7 31 3 -7
BITMAP
FE
F0
E0
E0
E0
E0
E0
E0
E0
E0
E0
E0
E0
E0
E0
E0
E0
E0
E0
E0
E0
E0
E0
E0
E0
E0
E0
E0
E0
F0
FE
ENDCHAR

STARTCHAR backslash
ENCODING 92
SWIDTH 606 0
DWIDTH 20 0
BBX 16 31 1 -7
BITMAP
E000
6000
7000
3000
3800
1800
1800
1C00
0C00
0E00
0600
0600
0700
0300
0380
0180
0180
00C0
00C0
00E0
0060
0070
0030
0030
0018
0018
001C
000C
000C
0006
0007
ENDCHAR

STARTCHAR bracketright
ENCODING 93
SWIDTH 333 0
DWIDTH 11 0
BBX 7 31 1 -7
BITMAP
FE
1E
0E
0E
0E
0E
0E
0E
0E
0E
0E
0E
0E
0E
0E
0E
0E
0E
0E
0E
0E
0E
0E
0E
0E
0E
0E
0E
0E
1E
FE
ENDCHAR

STARTCHAR asciicircum
ENCODING 94
SWIDTH 606 0
DWIDTH 20 0
BBX 16 13 2 11
BITMAP
0180
03C0
0340
0660
0E70
0C30
1818
1818
300C
300C
6006
6006
C003
ENDCHAR

STARTCHAR underscore
ENCODING 95
SWIDTH 500 0
DWIDTH 17 0
BBX 17 2 0 -4
BITMAP
FFFF80
FFFF80
ENDCHAR

STARTCHAR quoteleft
ENCODING 96
SWIDTH 278 0
DWIDTH 9 0
BBX 6 9 1 15
BITMAP
0C
18
18
30
70
70
E0
E0
80
ENDCHAR

STARTCHAR a
ENCODING 97
SWIDTH 500 0
DWIDTH 17 0
BBX 15 15 1 0
BITMAP
07C0
1FE0
6070
6038
0038
0038
03F8
3C38
7038
6038
E038
E078
F0B8
7F3E
1C00
ENDCHAR

STARTCHAR b
ENCODING 98
SWIDTH 553 0
DWIDTH 18 0
BBX 18 24 0 0
BITMAP
040000
FC0000
1C0000
1C0000
1C0000
1C0000
1C0000
1C0000
1C0000
1C7E00
1CFF00
1D0780
1E0380
1C01C0
1C01C0
1C01C0
1C01C0
1C0180
1C0180
1C0380
1C0300
1E0C00
1BF800
11E000
ENDCHAR

STARTCHAR c
ENCODING 99
SWIDTH 444 0
DWIDTH 15 0
BBX 13 15 1 0
BITMAP
03E0
0FF8
3818
7018
6010
E000
E000
E000
E000
E000
7000
7800
3C08
1FF0
07C0
ENDCHAR

STARTCHAR d
ENCODING 100
SWIDTH 611 0
DWIDTH 20 0
BBX 18 24 1 0
BITMAP
000200
003E00
000E00
000E00
000E00
000E00
000E00
000E00
000E00
03F600
0C7E00
301E00
700E00
600E00
E00E00
E00E00
E00E00
E00E00
E00E00
700E00
701E00
3C2E00
3FCE00
0F8FC0
ENDCHAR

STARTCHAR e
ENCODING 101
SWIDTH 479 0
DWIDTH 16 0
BBX 14 15 1 0
BITMAP
07E0
1870
3038
701C
601C
E01C
FFFC
E000
E000
F000
7000
7800
3C0C
1FF8
07C0
ENDCHAR

STARTCHAR f
ENCODING 102
SWIDTH 333 0
DWIDTH 11 0
BBX 11 24 0 0
BITMAP
00E0
03E0
0620
0C00
0C00
1C00
1C00
1C00
1C00
1C40
7FC0
1C00
1C00
1C00
1C00
1C00
1C00
1C00
1C00
1C00
1C00
1C00
1C00
FF80
ENDCHAR

STARTCHAR g
ENCODING 103
SWIDTH 556 0
DWIDTH 18 0
BBX 18 24 1 -9
BITMAP
07E000
1C7FC0
303F80
301C00
701C00
701C00
701C00
381800
3C7000
07C000
0C0000
180000
380000
3FFE00
0FFF00
180780
700380
600380
E00380
E00300
600600
700E00
3C3800
0FE000
ENDCHAR

STARTCHAR h
ENCODING 104
SWIDTH 582 0
DWIDTH 19 0
BBX 18 24 1 0
BITMAP
080000
F80000
380000
380000
380000
380000
380000
380000
380000
38F800
39FE00
3E0F00
3C0700
380700
380700
380700
380700
380700
380700
380700
380700
380700
380700
FF07C0
ENDCHAR

STARTCHAR i
ENCODING 105
SWIDTH 291 0
DWIDTH 10 0
BBX 8 23 1 0
BITMAP
18
3C
3C
18
00
00
00
00
1C
FC
1C
1C
1C
1C
1C
1C
1C
1C
1C
1C
1C
1C
FF
ENDCHAR

STARTCHAR j
ENCODING 106
SWIDTH 234 0
DWIDTH 8 0
BBX 7 33 -1 -10
BITMAP
0C
1E
1E
0C
00
00
00
00
06
3E
0E
0E
0E
0E
0E
0E
0E
0E
0E
0E
0E
0E
0E
0E
0E
0E
0E
0C
0C
0C
18
30
E0
ENDCHAR

STARTCHAR k
ENCODING 107
SWIDTH 556 0
DWIDTH 18 0
BBX 18 24 0 0
BITMAP
040000
FC0000
1C0000
1C0000
1C0000
1C0000
1C0000
1C0000
1C0000
1C0780
1C0E00
1C1800
1C3000
1CC000
1D8000
1F8000
1DE000
1CF000
1C7800
1C3C00
1C1E00
1C0F00
1C07C0
7F8380
ENDCHAR

STARTCHAR l
ENCODING 108
SWIDTH 291 0
DWIDTH 10 0
BBX 8 24 1 0
BITMAP
08
F8
38
38
38
38
38
38
38
38
38
38
38
38
38
38
38
38
38
38
38
38
38
FF
ENDCHAR

STARTCHAR m
ENCODING 109
SWIDTH 883 0
DWIDTH 29 0
BBX 28 15 1 0
BITMAP
18F03C00
F9FCFF00
3E1F8700
380E0380
380E0380
380E0380
380E0380
380E0380
380E0380
380E0380
380E0380
380E0380
380E0380
380E0380
FF7FC3F0
ENDCHAR

STARTCHAR n
ENCODING 110
SWIDTH 582 0
DWIDTH 19 0
BBX 19 15 0 0
BITMAP
0C7C00
FCFF00
1F0F00
1E0380
1C0380
1C0380
1C0380
1C0380
1C0380
1C0380
1C0380
1C0380
1C0380
1C0380
FF83E0
ENDCHAR

STARTCHAR o
ENCODING 111
SWIDTH 546 0
DWIDTH 18 0
BBX 16 15 1 0
BITMAP
07F0
1C3C
301E
700E
600F
E007
E007
E007
E007
F007
7006
700E
380C
1E38
0FE0
ENDCHAR

STARTCHAR p
ENCODING 112
SWIDTH 601 0
DWIDTH 20 0
BBX 18 23 1 -8
BITMAP
0C7C00
FCFF00
1F0780
1E0380
1C01C0
1C01C0
1C01C0
1C01C0
1C01C0
1C0180
1C0300
1C0300
1E0C00
1FF800
1DE000
1C0000
1C0000
1C0000
1C0000
1C0000
1C0000
1C0000
FF8000
ENDCHAR

STARTCHAR q
ENCODING 113
SWIDTH 560 0
DWIDTH 18 0
BBX 18 23 1 -8
BITMAP
03FB00
0C3E00
300E00
700E00
600E00
E00E00
E00E00
E00E00
E00E00
E00E00
700E00
701E00
3C3600
1FCE00
0F8E00
000E00
000E00
000E00
000E00
000E00
000E00
000E00
007FC0
ENDCHAR

STARTCHAR r
ENCODING 114
SWIDTH 395 0
DWIDTH 13 0
BBX 12 15 0 0
BITMAP
0C70
FCF0
1DF0
1E10
1C00
1C00
1C00
1C00
1C00
1C00
1C00
1C00
1C00
1C00
FF80
ENDCHAR

STARTCHAR s
ENCODING 115
SWIDTH 424 0
DWIDTH 14 0
BBX 11 15 2 0
BITMAP
3F80
61C0
C040
C040
C000
F000
7F00
3FC0
07E0
00E0
8060
8060
80C0
E180
7F00
ENDCHAR

STARTCHAR t
ENCODING 116
SWIDTH 326 0
DWIDTH 11 0
BBX 9 21 1 0
BITMAP
0800
3800
3800
3800
3800
3800
7F80
FF80
3800
3800
3800
3800
3800
3800
3800
3800
3800
3800
3C80
3F80
1F00
ENDCHAR

STARTCHAR u
ENCODING 117
SWIDTH 603 0
DWIDTH 20 0
BBX 18 15 1 0
BITMAP
180600
F87E00
380E00
380E00
380E00
380E00
380E00
380E00
380E00
380E00
380E00
381E00
3C3600
1FEE00
0F8FC0
ENDCHAR

STARTCHAR v
ENCODING 118
SWIDTH 565 0
DWIDTH 19 0
BBX 17 15 1 0
BITMAP
FE1F80
780600
380600
3C0400
1C0C00
1C0800
0E1800
0E1000
071000
072000
032000
03E000
03C000
01C000
018000
ENDCHAR

STARTCHAR w
ENCODING 119
SWIDTH 834 0
DWIDTH 28 0
BBX 26 15 1 0
BITMAP
FF040FC0
380E0380
380E0300
1C0E0200
1C1B0600
1C170400
0E338400
0E238C00
0E61C800
0641D800
07C0D000
0780F000
0380F000
03006000
03006000
ENDCHAR

STARTCHAR x
ENCODING 120
SWIDTH 516 0
DWIDTH 17 0
BBX 15 15 1 0
BITMAP
700E
F818
3C30
1E20
0E40
07C0
0380
03C0
06C0
0CE0
1870
3078
703C
E01E
0008
ENDCHAR

STARTCHAR y
ENCODING 121
SWIDTH 556 0
DWIDTH 18 0
BBX 17 24 1 -9
BITMAP
FE1F80
780600
380600
1C0400
1C0C00
1C0800
0E1800
0E1000
071000
072000
072000
03E000
03C000
01C000
018000
018000
018000
010000
030000
020000
060000
4C0000
780000
F00000
ENDCHAR

STARTCHAR z
ENCODING 122
SWIDTH 500 0
DWIDTH 17 0
BBX 15 15 1 0
BITMAP
7FFC
603C
4078
40F0
00E0
01C0
0380
0780
0F00
0E00
1C02
3C04
7804
F03C
FFFC
ENDCHAR

STARTCHAR braceleft
ENCODING 123
SWIDTH 333 0
DWIDTH 11 0
BBX 10 33 1 -9
BITMAP
00C0
0300
0600
0C00
0C00
0C00
1C00
1C00
0E00
0E00
0E00
0E00
0C00
0C00
1800
3000
C000
3000
1800
0C00
0C00
0E00
0E00
0E00
1E00
1C00
1C00
1C00
0C00
0C00
0600
0300
00C0
ENDCHAR

STARTCHAR bar
ENCODING 124
SWIDTH 606 0
DWIDTH 20 0
BBX 2 30 9 -6
BITMAP
C0
C0
C0
C0
C0
C0
C0
C0
C0
C0
C0
C0
C0
C0
C0
C0
C0
C0
C0
C0
C0
C0
C0
C0
C0
C0
C0
C0
C0
C0
ENDCHAR

STARTCHAR braceright
ENCODING 125
SWIDTH 333 0
DWIDTH 11 0
BBX 10 33 0 -9
BITMAP
C000
3000
1800
0C00
0C00
0E00
0E00
0E00
1E00
1C00
1C00
1C00
0C00
0C00
0600
0100
00C0
0100
0600
0C00
0C00
1C00
1C00
1E00
0E00
0E00
0E00
0E00
0C00
0C00
1800
3000
C000
ENDCHAR

STARTCHAR asciitilde
ENCODING 126
SWIDTH 606 0
DWIDTH 20 0
BBX 18 6 1 8
BITMAP
1C0040
7F8040
7FE080
41FF80
C03F80
800E00
ENDCHAR

STARTCHAR space
ENCODING 160
SWIDTH 250 0
DWIDTH 10 0
BBX 0 0 0 0
BITMAP
ENDCHAR

STARTCHAR exclamdown
ENCODING 161
SWIDTH 278 0
DWIDTH 9 0
BBX 4 23 3 -8
BITMAP
60
F0
F0
60
00
00
20
60
60
60
60
60
60
60
60
60
60
F0
F0
F0
F0
F0
C0
ENDCHAR

STARTCHAR cent
ENCODING 162
SWIDTH 500 0
DWIDTH 17 0
BBX 13 20 2 1
BITMAP
0100
0100
07F8
1D70
3110
7110
6110
E100
E100
E100
E100
F100
7100
7900
3D00
1FF8
0FE0
0100
0100
0100
ENDCHAR

STARTCHAR sterling
ENCODING 163
SWIDTH 500 0
DWIDTH 17 0
BBX 16 23 0 0
BITMAP
003E
00FF
0183
0703
0601
0E00
0E00
0E00
0E00
0E00
0E00
7FF8
0C00
0C00
0C00
0C00
0800
1801
1001
0001
7FFF
EFFF
C03E
ENDCHAR

STARTCHAR currency
ENCODING 164
SWIDTH 606 0
DWIDTH 20 0
BBX 16 17 2 3
BITMAP
C7E2
EFFB
3C3C
700E
6006
E007
C003
C003
C003
C003
E003
E007
700E
381C
7C3E
EFFB
47E2
ENDCHAR

STARTCHAR yen
ENCODING 165
SWIDTH 500 0
DWIDTH 17 0
BBX 16 23 0 0
BITMAP
7003
F807
3806
1C0C
1C0C
0E08
0E18
0610
0730
0320
03E0
03C0
7FFF
01C0
01C0
01C0
01C0
7FFF
01C0
01C0
01C0
01C0
0FF8
ENDCHAR

STARTCHAR brokenbar
ENCODING 166
SWIDTH 606 0
DWIDTH 20 0
BBX 2 30 9 -6
BITMAP
C0
C0
C0
C0
C0
C0
C0
C0
C0
C0
00
00
00
00
00
00
00
00
00
00
C0
C0
C0
C0
C0
C0
C0
C0
C0
C0
ENDCHAR

STARTCHAR section
ENCODING 167
SWIDTH 500 0
DWIDTH 17 0
BBX 13 28 2 -5
BITMAP
07E0
0FE0
1060
2020
6020
6000
6000
7000
7E00
3FC0
6FF0
41F8
C078
C018
E018
F818
7F30
1FE0
07F0
00F8
0038
0018
4018
4010
4030
6060
7FC0
1F00
ENDCHAR

STARTCHAR dieresis
ENCODING 168
SWIDTH 333 0
DWIDTH 11 0
BBX 11 4 0 17
BITMAP
60C0
F1E0
F1E0
60C0
ENDCHAR

STARTCHAR copyright
ENCODING 169
SWIDTH 747 0
DWIDTH 25 0
BBX 24 23 0 0
BITMAP
00FF00
0381C0
0C0030
180018
303E4C
20C1C4
4380C2
470042
C60041
8E0001
8E0001
8E0001
8E0001
8E0001
860001
470022
438042
21C184
307E0C
180018
0C0030
0381C0
00FF00
ENDCHAR

STARTCHAR ordfeminine
ENCODING 170
SWIDTH 333 0
DWIDTH 11 0
BBX 10 9 1 14
BITMAP
3E00
4700
4300
0F00
7B00
C300
C300
E700
7BC0
ENDCHAR

STARTCHAR guillemotleft
ENCODING 171
SWIDTH 500 0
DWIDTH 17 0
BBX 13 12 2 2
BITMAP
0408
0C10
1830
3060
70C0
C1C0
E380
61C0
30E0
1820
0810
0408
ENDCHAR

STARTCHAR logicalnot
ENCODING 172
SWIDTH 606 0
DWIDTH 20 0
BBX 16 8 2 7
BITMAP
FFFF
FFFF
0003
0003
0003
0003
0003
0003
ENDCHAR

STARTCHAR hyphen
ENCODING 173
SWIDTH 333 0
DWIDTH 11 0
BBX 9 3 1 7
BITMAP
FF80
FF80
FF80
ENDCHAR

STARTCHAR registered
ENCODING 174
SWIDTH 747 0
DWIDTH 25 0
BBX 24 23 0 0
BITMAP
00FF00
0300C0
0C0030
180018
37FC0C
218704
418382
418382
818381
818381
818701
81F801
819C01
818C01
C18603
418702
418382
27E1E4
100008
180018
040060
0381C0
00FE00
ENDCHAR

STARTCHAR macron
ENCODING 175
SWIDTH 333 0
DWIDTH 11 0
BBX 9 1 1 19
BITMAP
FF80
ENDCHAR

STARTCHAR degree
ENCODING 176
SWIDTH 401 0
DWIDTH 13 0
BBX 10 10 2 13
BITMAP
1E00
3F80
6180
C0C0
C0C0
C0C0
C0C0
6180
3F80
1E00
ENDCHAR

STARTCHAR plusminus
ENCODING 177
SWIDTH 606 0
DWIDTH 20 0
BBX 16 20 2 0
BITMAP
0180
0180
0180
0180
0180
0180
0180
FFFF
FFFF
0180
0180
0180
0180
0180
0180
0180
0000
0000
FFFF
FFFF
ENDCHAR

STARTCHAR twosuperior
ENCODING 178
SWIDTH 310 0
DWIDTH 10 0
BBX 10 14 0 9
BITMAP
1E00
7F00
4380
4180
0180
0180
0300
0300
0600
0C00
1000
2000
7FC0
FFC0
ENDCHAR

STARTCHAR threesuperior
ENCODING 179
SWIDTH 310 0
DWIDTH 10 0
BBX 9 14 0 9
BITMAP
3C00
7E00
C300
8300
0200
0400
3F00
1380
0180
0180
8180
8300
C600
FC00
ENDCHAR

STARTCHAR acute
ENCODING 180
SWIDTH 333 0
DWIDTH 11 0
BBX 8 5 2 17
BITMAP
07
0E
1C
30
E0
ENDCHAR

STARTCHAR mu
ENCODING 181
SWIDTH 561 0
DWIDTH 19 0
BBX 16 22 2 -6
BITMAP
7038
7038
7038
7038
7038
7038
7038
7038
7038
7038
7038
7038
7079
78D9
7F9E
5E0C
6000
E000
E000
E000
E000
4000
ENDCHAR

STARTCHAR paragraph
ENCODING 182
SWIDTH 628 0
DWIDTH 21 0
BBX 17 32 2 -9
BITMAP
0FFF80
3F8600
7F8400
FF8400
FF8400
FF8400
FF8400
FF8400
FF8400
7F8400
7F8400
3F8400
038400
008400
008400
008400
008400
008400
008400
008400
008400
008400
008400
008400
008400
008400
008400
008400
008400
008400
008400
008400
ENDCHAR

STARTCHAR periodcentered
ENCODING 183
SWIDTH 250 0
DWIDTH 8 0
BBX 4 4 2 10
BITMAP
60
F0
F0
60
ENDCHAR

STARTCHAR cedilla
ENCODING 184
SWIDTH 333 0
DWIDTH 11 0
BBX 7 7 3 -7
BITMAP
10
10
3C
06
06
8E
7C
ENDCHAR

STARTCHAR onesuperior
ENCODING 185
SWIDTH 310 0
DWIDTH 10 0
BBX 9 14 0 9
BITMAP
0400
3C00
EC00
0C00
0C00
0C00
0C00
0C00
0C00
0C00
0C00
0C00
0C00
7F80
ENDCHAR

STARTCHAR ordmasculine
ENCODING 186
SWIDTH 333 0
DWIDTH 11 0
BBX 10 10 1 13
BITMAP
1F00
6380
E1C0
C0C0
C0C0
C0C0
E0C0
E180
7180
3E00
ENDCHAR

STARTCHAR guillemotright
ENCODING 187
SWIDTH 500 0
DWIDTH 17 0
BBX 13 12 2 2
BITMAP
8200
C100
6080
30C0
3860
1C30
1C38
1870
3060
60C0
C180
8300
ENDCHAR

STARTCHAR onequarter
ENCODING 188
SWIDTH 788 0
DWIDTH 26 0
BBX 24 25 1 -1
BITMAP
000030
040060
3C0040
EC00C0
0C0080
0C0180
0C0100
0C0300
0C0200
0C0600
0C040C
0C0C0C
0C081C
0C102C
7F902C
00204C
00208C
00408C
00C10C
0083FF
01800C
01000C
03000C
02003F
060000
ENDCHAR

STARTCHAR onehalf
ENCODING 189
SWIDTH 788 0
DWIDTH 26 0
BBX 25 25 1 -1
BITMAP
00003000
04002000
1C004000
EC00C000
4C008000
0C018000
0C010000
0C030000
0C020000
0C060000
0C047C00
0C0CFE00
0C088700
0C188300
7F900300
00300300
00200600
00600400
00400800
00801000
00802000
01004000
0100FF80
0201FF80
06000000
ENDCHAR

STARTCHAR threequarters
ENCODING 190
SWIDTH 788 0
DWIDTH 26 0
BBX 23 25 1 -1
BITMAP
000020
3C0060
7E0040
C30080
830080
020100
040300
3F0200
138600
018400
018C18
818818
831838
C61058
FC3058
002098
006118
004118
00C218
0083FE
018018
010018
030018
02007E
060000
ENDCHAR

STARTCHAR questiondown
ENCODING 191
SWIDTH 444 0
DWIDTH 15 0
BBX 12 24 1 -9
BITMAP
0300
0780
0780
0300
0000
0000
0200
0100
0100
0300
0300
0600
0C00
1800
3800
7000
E000
E000
E000
E030
F020
7860
3FE0
1F80
ENDCHAR

STARTCHAR Agrave
ENCODING 192
SWIDTH 778 0
DWIDTH 26 0
BBX 24 30 1 0
BITMAP
004000
00E000
007000
001800
000C00
000300
000000
001800
001800
001C00
003C00
002C00
006E00
004E00
00C700
00C700
018780
018380
0303C0
0301C0
0201C0
07FFE0
0400E0
0C00F0
0C0070
180078
180038
38003C
38003C
FE01FF
ENDCHAR

STARTCHAR Aacute
ENCODING 193
SWIDTH 778 0
DWIDTH 26 0
BBX 24 30 1 0
BITMAP
000100
000700
000E00
001C00
003000
004000
000000
001800
001800
001C00
003C00
002C00
006E00
004E00
00C700
00C700
018780
018380
0303C0
0301C0
0201C0
07FFE0
0400E0
0C00F0
0C0070
180078
180038
38003C
38003C
FE01FF
ENDCHAR

STARTCHAR Acircumflex
ENCODING 194
SWIDTH 778 0
DWIDTH 26 0
BBX 24 30 1 0
BITMAP
001800
003C00
007400
006600
00C300
010180
000000
001800
001800
001C00
003C00
002C00
006E00
004E00
00C700
00C700
018780
018380
0303C0
0301C0
0201C0
07FFE0
0400E0
0C00F0
0C0070
180078
180038
38003C
38003C
FE01FF
ENDCHAR

STARTCHAR Atilde
ENCODING 195
SWIDTH 778 0
DWIDTH 26 0
BBX 24 29 1 0
BITMAP
00E040
01F880
023F80
020700
000000
000000
001800
001800
001C00
003C00
002C00
006E00
004E00
00C700
00C700
018780
018380
0303C0
0301C0
0201C0
07FFE0
0400E0
0C00F0
0C0070
180078
180038
38003C
38003C
FE01FF
ENDCHAR

STARTCHAR Adieresis
ENCODING 196
SWIDTH 778 0
DWIDTH 26 0
BBX 25 28 0 0
BITMAP
00C18000
01E3C000
01E3C000
00C18000
00000000
00080000
000C0000
001C0000
001E0000
00360000
002F0000
00670000
00670000
00C38000
00C38000
0081C000
0181C000
0101E000
0300E000
03FFF000
06007000
06007000
0C003800
0C003800
08003C00
18001C00
3C001E00
FF00FF80
ENDCHAR

STARTCHAR Aring
ENCODING 197
SWIDTH 778 0
DWIDTH 26 0
BBX 24 31 1 0
BITMAP
003C00
006600
004200
004200
006600
003C00
000000
000000
000800
001800
001C00
003C00
002E00
002E00
006E00
004700
00C700
008380
018380
0183C0
0301C0
0301C0
07FFE0
0600E0
0400F0
0C0070
0C0078
180038
18003C
38003C
FF01FF
ENDCHAR

STARTCHAR AE
ENCODING 198
SWIDTH 944 0
DWIDTH 31 0
BBX 30 23 0 0
BITMAP
003FFFF8
0006E038
0006E008
000CE008
000CE008
0018E000
0018E000
0030E000
0030E020
0060E020
0040E060
00C0FFE0
0180E060
0180E020
03FFE020
0300E000
0600E000
0600E000
0C00E004
0C00E004
1800E00C
1800E01C
FF03FFFC
ENDCHAR

STARTCHAR Ccedilla
ENCODING 199
SWIDTH 709 0
DWIDTH 23 0
BBX 21 30 2 -7
BITMAP
00FFC0
07C1F8
0E0030
1C0010
380010
780010
700000
F00000
E00000
E00000
E00000
E00000
E00000
E00000
F00000
F00000
700000
780000
3C0000
1E0000
0F0018
07C070
01FFC0
001C00
000800
001E00
000700
000300
004700
007E00
ENDCHAR

STARTCHAR Egrave
ENCODING 200
SWIDTH 611 0
DWIDTH 20 0
BBX 18 30 1 0
BITMAP
060000
030000
038000
00C000
003000
001800
000000
FFFFC0
3FFF80
1C0080
1C0080
1C0080
1C0080
1C0000
1C0000
1C0200
1C0200
1C0600
1FFE00
1C0600
1C0200
1C0200
1C0000
1C0000
1C0000
1C0040
1C0040
1C00C0
1C01C0
FFFFC0
ENDCHAR

STARTCHAR Eacute
ENCODING 201
SWIDTH 611 0
DWIDTH 20 0
BBX 18 30 1 0
BITMAP
001800
003800
007000
00C000
018000
020000
000000
FFFFC0
3FFF80
1C0080
1C0080
1C0080
1C0080
1C0000
1C0000
1C0200
1C0200
1C0600
1FFE00
1C0600
1C0200
1C0200
1C0000
1C0000
1C0000
1C0040
1C0040
1C00C0
1C01C0
FFFFC0
ENDCHAR

STARTCHAR Ecircumflex
ENCODING 202
SWIDTH 611 0
DWIDTH 20 0
BBX 18 30 1 0
BITMAP
00C000
01E000
036000
063000
041800
080400
000000
FFFFC0
3FFF80
1C0080
1C0080
1C0080
1C0080
1C0000
1C0000
1C0200
1C0200
1C0600
1FFE00
1C0600
1C0200
1C0200
1C0000
1C0000
1C0000
1C0040
1C0040
1C00C0
1C01C0
FFFFC0
ENDCHAR

STARTCHAR Edieresis
ENCODING 203
SWIDTH 611 0
DWIDTH 20 0
BBX 18 28 1 0
BITMAP
0C0800
0E1C00
0E1C00
040800
000000
FFFF80
3FFF80
1C0080
1C0080
1C0080
1C0080
1C0000
1C0000
1C0200
1C0200
1C0600
1FFE00
1C0600
1C0200
1C0200
1C0000
1C0000
1C0000
1C0040
1C00C0
1C00C0
1C01C0
FFFF80
ENDCHAR

STARTCHAR Igrave
ENCODING 204
SWIDTH 337 0
DWIDTH 11 0
BBX 9 30 1 0
BITMAP
6000
7000
3800
0C00
0300
0000
0000
FF80
1C00
1C00
1C00
1C00
1C00
1C00
1C00
1C00
1C00
1C00
1C00
1C00
1C00
1C00
1C00
1C00
1C00
1C00
1C00
1C00
3C00
FF80
ENDCHAR

STARTCHAR Iacute
ENCODING 205
SWIDTH 337 0
DWIDTH 11 0
BBX 9 30 1 0
BITMAP
0380
0700
0E00
1C00
7000
0000
0000
FF80
1C00
1C00
1C00
1C00
1C00
1C00
1C00
1C00
1C00
1C00
1C00
1C00
1C00
1C00
1C00
1C00
1C00
1C00
1C00
1C00
3C00
FF80
ENDCHAR

STARTCHAR Icircumflex
ENCODING 206
SWIDTH 337 0
DWIDTH 11 0
BBX 9 30 1 0
BITMAP
1C00
1C00
3600
6300
C180
8080
0000
FF80
1C00
1C00
1C00
1C00
1C00
1C00
1C00
1C00
1C00
1C00
1C00
1C00
1C00
1C00
1C00
1C00
1C00
1C00
1C00
1C00
3E00
FF80
ENDCHAR

STARTCHAR Idieresis
ENCODING 207
SWIDTH 337 0
DWIDTH 11 0
BBX 11 28 0 0
BITMAP
60C0
F1E0
F1E0
60C0
0000
7FC0
0E00
0E00
0E00
0E00
0E00
0E00
0E00
0E00
0E00
0E00
0E00
0E00
0E00
0E00
0E00
0E00
0E00
0E00
0E00
0E00
1F00
7FC0
ENDCHAR

STARTCHAR Gbreve
ENCODING 208
SWIDTH 763 0
DWIDTH 25 0
BBX 23 30 1 0
BITMAP
010100
010100
018300
00C600
00FE00
007C00
000000
00FFE0
03C0FC
0F001C
1C000C
38000C
780008
700000
700000
E00000
E00000
E00000
E00000
E00000
E00000
F001FE
F0001C
70001C
78001C
3C001C
1E001C
0F001C
07E0FC
00FFC0
ENDCHAR

STARTCHAR Ntilde
ENCODING 209
SWIDTH 831 0
DWIDTH 27 0
BBX 25 29 1 0
BITMAP
00704000
00FC4000
011F8000
00070000
00000000
00000000
FC003F80
3E000E00
1E000400
1F000400
17800400
13C00400
11C00400
11E00400
10F00400
10780400
103C0400
103C0400
101E0400
100F0400
10078400
1003C400
1003C400
1001E400
1000F400
10007C00
10003C00
38001C00
FE001E00
ENDCHAR

STARTCHAR Ograve
ENCODING 210
SWIDTH 786 0
DWIDTH 26 0
BBX 24 30 1 0
BITMAP
006000
007000
003800
001C00
000600
000100
000000
01FF80
0783E0
0E0078
1C003C
38001E
70001E
70000F
E0000F
E00007
E00007
E00007
E00007
E00007
F00007
F00007
F0000E
78000E
78000C
3C001C
1E0038
0F0070
07C1C0
01FF00
ENDCHAR

STARTCHAR Oacute
ENCODING 211
SWIDTH 786 0
DWIDTH 26 0
BBX 24 30 1 0
BITMAP
000300
000700
000E00
001C00
003000
004000
000000
01FF80
0783E0
0E0078
1C003C
38001E
70001E
70000F
E0000F
E00007
E00007
E00007
E00007
E00007
F00007
F00007
F0000E
78000E
78000C
3C001C
1E0038
0F0070
07C1C0
01FF00
ENDCHAR

STARTCHAR Ocircumflex
ENCODING 212
SWIDTH 786 0
DWIDTH 26 0
BBX 24 30 1 0
BITMAP
001800
003C00
007600
006600
008100
010080
000000
01FF80
0783E0
0E0078
1C003C
38001E
70001E
70000F
E0000F
E00007
E00007
E00007
E00007
E00007
F00007
F00007
F0000E
78000E
78000C
3C001C
1E0038
0F0070
07C1C0
01FF00
ENDCHAR

STARTCHAR Otilde
ENCODING 213
SWIDTH 786 0
DWIDTH 26 0
BBX 24 29 1 0
BITMAP
00E040
01FCC0
031F80
000700
000000
000000
01FF80
0783E0
0E0078
1C003C
38001E
70001E
70000F
E0000F
E00007
E00007
E00007
E00007
E00007
F00007
F00007
F0000E
78000E
78000C
3C001C
1E0038
0F0070
07C1C0
01FF00
ENDCHAR

STARTCHAR Odieresis
ENCODING 214
SWIDTH 786 0
DWIDTH 26 0
BBX 24 28 1 0
BITMAP
00C180
01E3C0
01E3C0
00C180
000000
00FF80
0783F0
0E0078
1C003C
38001E
70000E
70000F
F0000F
E00007
E00007
E00007
E00007
E00007
F00007
F00007
F0000E
78000E
78000C
3C001C
1E0038
0F0070
07E1C0
01FF00
ENDCHAR

STARTCHAR multiply
ENCODING 215
SWIDTH 606 0
DWIDTH 20 0
BBX 14 14 3 4
BITMAP
4008
E01C
7038
3870
1CE0
0FC0
0780
0780
0EC0
1CE0
3870
7038
E01C
4008
ENDCHAR

STARTCHAR Oslash
ENCODING 216
SWIDTH 833 0
DWIDTH 27 0
BBX 24 25 2 -1
BITMAP
000003
01FF82
0783E6
0E0078
1C003C
38003E
70006E
7000CF
E0018F
E0030F
E00607
E00C07
E01807
E03007
F06007
F06007
70C00E
79800E
7B000C
3C001C
1E0038
1F0070
37C1C0
E1FF00
400000
ENDCHAR

STARTCHAR Ugrave
ENCODING 217
SWIDTH 778 0
DWIDTH 26 0
BBX 24 30 1 0
BITMAP
006000
007000
003800
001C00
000700
000000
000000
FF80FF
1E001C
1C0008
1C0008
1C0008
1C0008
1C0008
1C0008
1C0008
1C0008
1C0008
1C0008
1C0008
1C0008
1C0008
1C0008
1C0008
1C0018
1E0018
0F0030
0FC0E0
03FFC0
00FF00
ENDCHAR

STARTCHAR Uacute
ENCODING 218
SWIDTH 778 0
DWIDTH 26 0
BBX 24 30 1 0
BITMAP
000300
000700
000E00
001800
007000
000000
000000
FF80FF
1E001C
1C0008
1C0008
1C0008
1C0008
1C0008
1C0008
1C0008
1C0008
1C0008
1C0008
1C0008
1C0008
1C0008
1C0008
1C0008
1C0018
1E0018
0F0030
0FC0E0
03FFC0
00FF00
ENDCHAR

STARTCHAR Ucircumflex
ENCODING 219
SWIDTH 778 0
DWIDTH 26 0
BBX 24 30 1 0
BITMAP
001800
003C00
007600
004300
008100
010080
000000
FF80FF
1E001C
1C0008
1C0008
1C0008
1C0008
1C0008
1C0008
1C0008
1C0008
1C0008
1C0008
1C0008
1C0008
1C0008
1C0008
1C0008
1C0018
1E0018
0F0030
0FC0E0
03FFC0
00FF00
ENDCHAR

STARTCHAR Udieresis
ENCODING 220
SWIDTH 778 0
DWIDTH 26 0
BBX 24 28 1 0
BITMAP
00C180
01E3C0
01E3C0
00C180
000000
FFC07F
1E001C
1C0008
1C0008
1C0008
1C0008
1C0008
1C0008
1C0008
1C0008
1C0008
1C0008
1C0008
1C0008
1C0008
1C0008
1C0008
1E0018
1E0018
0F0030
0FC0E0
03FFC0
00FF00
ENDCHAR

STARTCHAR Idotaccent
ENCODING 221
SWIDTH 337 0
DWIDTH 11 0
BBX 9 28 1 0
BITMAP
0C00
1E00
1E00
0C00
0000
FF80
1C00
1C00
1C00
1C00
1C00
1C00
1C00
1C00
1C00
1C00
1C00
1C00
1C00
1C00
1C00
1C00
1C00
1C00
1C00
1C00
3C00
FF80
ENDCHAR

STARTCHAR Scedilla
ENCODING 222
SWIDTH 525 0
DWIDTH 17 0
BBX 17 29 0 -6
BITMAP
07FC00
1C1F00
380600
700200
600200
E00200
E00000
E00000
F00000
7C0000
7FF000
3FFE00
07FF00
000F80
000780
000380
000380
400380
400300
400700
600600
701C00
7FF000
038000
010000
03E000
006000
006000
0FC000
ENDCHAR

STARTCHAR germandbls
ENCODING 223
SWIDTH 556 0
DWIDTH 18 0
BBX 16 24 1 0
BITMAP
01F8
031C
040C
0C06
1806
1806
3806
3806
3806
381C
783C
F840
38C0
38E0
38F0
387C
383E
380F
3807
3803
3883
3882
39C4
FEF8
ENDCHAR

STARTCHAR agrave
ENCODING 224
SWIDTH 500 0
DWIDTH 17 0
BBX 15 22 1 0
BITMAP
0400
0E00
0700
0380
00C0
0030
0000
07C0
1FE0
6070
6038
2038
0038
03F8
1C38
7038
6038
E038
E078
F0B8
7F38
1C3E
ENDCHAR

STARTCHAR aacute
ENCODING 225
SWIDTH 500 0
DWIDTH 17 0
BBX 15 22 1 0
BITMAP
0010
0070
00E0
01C0
0300
0C00
0000
07C0
1FE0
6070
6038
2038
0038
03F8
1C38
7038
6038
E038
E078
F0B8
7F38
1C3E
ENDCHAR

STARTCHAR acircumflex
ENCODING 226
SWIDTH 500 0
DWIDTH 17 0
BBX 15 22 1 0
BITMAP
0100
0380
0740
0C60
0830
1018
0000
07C0
1FE0
6070
6038
2038
0038
03F8
1C38
7038
6038
E038
E078
F0B8
7F38
1C3E
ENDCHAR

STARTCHAR atilde
ENCODING 227
SWIDTH 500 0
DWIDTH 17 0
BBX 15 21 1 0
BITMAP
0E04
3F88
23F8
20F0
0000
0000
07C0
1FE0
6070
6038
2038
0038
03F8
1C38
7038
6038
E038
E078
F0B8
7F38
1C3E
ENDCHAR

STARTCHAR adieresis
ENCODING 228
SWIDTH 500 0
DWIDTH 17 0
BBX 15 20 1 0
BITMAP
1830
3C78
3C78
1830
0000
07C0
1FE0
2070
2038
2038
0038
03F8
1C38
3038
6038
E038
E078
F0B8
7F38
1C3E
ENDCHAR

STARTCHAR aring
ENCODING 229
SWIDTH 500 0
DWIDTH 17 0
BBX 15 24 1 0
BITMAP
07C0
0C60
0820
0820
0C20
0460
03C0
0000
0000
0FC0
1FE0
6070
6038
2038
0038
03F8
1C38
7038
6038
E038
E078
F0B8
7F38
3C3E
ENDCHAR

STARTCHAR ae
ENCODING 230
SWIDTH 758 0
DWIDTH 25 0
BBX 23 15 1 0
BITMAP
0783F0
1FEC38
60781C
60780E
00700E
00300E
07FFFE
3C3000
703000
E03800
E03800
E05C00
F19E06
7F0FF8
3C03E0
ENDCHAR

STARTCHAR ccedilla
ENCODING 231
SWIDTH 444 0
DWIDTH 15 0
BBX 13 22 1 -7
BITMAP
03F0
0FF8
1838
3018
6018
6000
E000
E000
E000
E000
F000
7000
7800
3C08
1FF0
03C0
0100
03C0
0060
0060
08E0
07C0
ENDCHAR

STARTCHAR egrave
ENCODING 232
SWIDTH 479 0
DWIDTH 16 0
BBX 14 22 1 0
BITMAP
0800
0E00
0700
0380
00C0
0060
0000
07E0
1870
3038
701C
601C
E01C
FFFC
E000
E000
F000
7000
7800
3C0C
1FF8
07C0
ENDCHAR

STARTCHAR eacute
ENCODING 233
SWIDTH 479 0
DWIDTH 16 0
BBX 14 22 1 0
BITMAP
0060
00E0
01C0
0380
0600
0800
0000
07E0
1870
3038
701C
601C
E01C
FFFC
E000
E000
F000
7000
7800
3C0C
1FF8
07C0
ENDCHAR

STARTCHAR ecircumflex
ENCODING 234
SWIDTH 479 0
DWIDTH 16 0
BBX 14 22 1 0
BITMAP
0300
0780
06C0
0CC0
1820
2010
0000
07E0
1870
3038
701C
601C
E01C
FFFC
E000
E000
F000
7000
7800
3C0C
1FF8
07C0
ENDCHAR

STARTCHAR edieresis
ENCODING 235
SWIDTH 479 0
DWIDTH 16 0
BBX 13 20 2 0
BITMAP
3060
78F0
78F0
3060
0000
0FC0
3860
6070
E038
E038
E038
FFF8
E000
E000
E000
F000
7000
7818
3FF0
0780
ENDCHAR

STARTCHAR igrave
ENCODING 236
SWIDTH 287 0
DWIDTH 9 0
BBX 8 23 0 0
BITMAP
60
70
38
0C
06
01
00
0C
FC
1C
1C
1C
1C
1C
1C
1C
1C
1C
1C
1C
1C
1C
FF
ENDCHAR

STARTCHAR iacute
ENCODING 237
SWIDTH 287 0
DWIDTH 9 0
BBX 8 23 0 0
BITMAP
01
07
0F
1C
30
60
00
0C
FC
1C
1C
1C
1C
1C
1C
1C
1C
1C
1C
1C
1C
1C
FF
ENDCHAR

STARTCHAR icircumflex
ENCODING 238
SWIDTH 287 0
DWIDTH 9 0
BBX 10 23 -1 0
BITMAP
0C00
0E00
1B00
3180
6080
C040
0000
0600
7E00
0E00
0E00
0E00
0E00
0E00
0E00
0E00
0E00
0E00
0E00
0E00
0E00
0E00
7F80
ENDCHAR

STARTCHAR idieresis
ENCODING 239
SWIDTH 287 0
DWIDTH 9 0
BBX 11 21 -1 0
BITMAP
60C0
F1E0
F1E0
60C0
0000
0600
7E00
0E00
0E00
0E00
0E00
0E00
0E00
0E00
0E00
0E00
0E00
0E00
0E00
0F00
7FC0
ENDCHAR

STARTCHAR gbreve
ENCODING 240
SWIDTH 556 0
DWIDTH 18 0
BBX 18 32 1 -9
BITMAP
080400
0C0C00
040800
061800
03F000
01E000
000000
07E000
187FC0
383F80
301C00
701C00
701C00
701C00
701800
383800
3C7000
07C000
0C0000
180000
380000
3FFE00
0FFF00
180780
700380
600380
E00380
E00300
600600
700E00
3C3800
0FE000
ENDCHAR

STARTCHAR ntilde
ENCODING 241
SWIDTH 582 0
DWIDTH 19 0
BBX 19 21 0 0
BITMAP
038100
07E300
08FE00
001C00
000000
000000
0C7C00
FCFF00
1F0F00
1E0780
1C0380
1C0380
1C0380
1C0380
1C0380
1C0380
1C0380
1C0380
1C0380
1C0380
FF83E0
ENDCHAR

STARTCHAR ograve
ENCODING 242
SWIDTH 546 0
DWIDTH 18 0
BBX 16 22 1 0
BITMAP
0400
0700
0380
01C0
0060
0010
0000
07F0
1C3C
301E
700E
600F
E007
E007
E007
E007
F007
7006
700E
380C
1E38
0FE0
ENDCHAR

STARTCHAR oacute
ENCODING 243
SWIDTH 546 0
DWIDTH 18 0
BBX 16 22 1 0
BITMAP
0030
0070
00E0
01C0
0300
0400
0000
07F0
1C3C
301E
700E
600F
E007
E007
E007
E007
F007
7006
700E
380C
1E38
0FE0
ENDCHAR

STARTCHAR ocircumflex
ENCODING 244
SWIDTH 546 0
DWIDTH 18 0
BBX 16 22 1 0
BITMAP
0180
03C0
0760
0660
0810
1008
0000
07F0
1C3C
301E
700E
600F
E007
E007
E007
E007
F007
7006
700E
380C
1E38
0FE0
ENDCHAR

STARTCHAR otilde
ENCODING 245
SWIDTH 546 0
DWIDTH 18 0
BBX 16 21 1 0
BITMAP
0E04
1FCC
21F8
0070
0000
0000
07F0
1C3C
301E
700E
600F
E007
E007
E007
E007
F007
7006
700E
380C
1E38
0FE0
ENDCHAR

STARTCHAR odieresis
ENCODING 246
SWIDTH 546 0
DWIDTH 18 0
BBX 15 20 2 0
BITMAP
1830
3C78
3C78
1830
0000
07E0
1878
303C
601C
600E
E00E
E00E
E00E
E00E
E00E
F00C
700C
3818
1C30
0FC0
ENDCHAR

STARTCHAR divide
ENCODING 247
SWIDTH 606 0
DWIDTH 20 0
BBX 16 14 2 4
BITMAP
0180
03C0
03C0
0180
0000
0000
FFFF
FFFF
0000
0000
0180
03C0
03C0
0180
ENDCHAR

STARTCHAR oslash
ENCODING 248
SWIDTH 556 0
DWIDTH 18 0
BBX 16 17 1 -1
BITMAP
0003
07F2
1C3C
301E
701E
6037
E067
E0C7
E187
E307
F607
7C06
780E
380C
7C38
CFE0
8000
ENDCHAR

STARTCHAR ugrave
ENCODING 249
SWIDTH 603 0
DWIDTH 20 0
BBX 19 22 1 0
BITMAP
060000
030000
03C000
00E000
003000
000800
0C0100
FC3F00
3C1F00
380700
380700
380700
380700
380700
380700
380700
380700
380F00
3C0F00
1C1700
1FE700
07C7E0
ENDCHAR

STARTCHAR uacute
ENCODING 250
SWIDTH 603 0
DWIDTH 20 0
BBX 19 22 1 0
BITMAP
001800
003800
007000
00E000
018000
020000
0C0100
FC3F00
3C1F00
380700
380700
380700
380700
380700
380700
380700
380700
380F00
3C0F00
1C1700
1FE700
07C7E0
ENDCHAR

STARTCHAR ucircumflex
ENCODING 251
SWIDTH 603 0
DWIDTH 20 0
BBX 19 23 1 0
BITMAP
00C000
01E000
01B000
033000
060800
0C0400
000000
0C0100
FC3F00
3C1F00
380700
380700
380700
380700
380700
380700
380700
380700
380F00
3C0F00
1C3700
1FE700
07C7E0
ENDCHAR

STARTCHAR udieresis
ENCODING 252
SWIDTH 603 0
DWIDTH 20 0
BBX 18 20 1 0
BITMAP
0C1800
1E3C00
1E3C00
041800
080200
F83E00
381E00
380E00
380E00
380E00
380E00
380E00
380E00
380E00
380E00
380E00
381E00
1C3600
1FEE00
078FC0
ENDCHAR

STARTCHAR dotlessi
ENCODING 253
SWIDTH 287 0
DWIDTH 9 0
BBX 9 15 0 0
BITMAP
0C00
FC00
1C00
1C00
1C00
1C00
1C00
1C00
1C00
1C00
1C00
1C00
1C00
1C00
FF80
ENDCHAR

STARTCHAR scedilla
ENCODING 254
SWIDTH 424 0
DWIDTH 14 0
BBX 11 21 2 -6
BITMAP
3F80
61C0
C040
C040
C000
F000
FF00
3FC0
07E0
00E0
8060
8060
80C0
E180
7F00
0800
1E00
0700
0300
4700
3E00
ENDCHAR

STARTCHAR ydieresis
ENCODING 255
SWIDTH 556 0
DWIDTH 18 0
BBX 17 29 1 -9
BITMAP
0C1800
1E3C00
1E3C00
040800
000000
FE1F80
780600
380600
1C0400
1C0C00
1C0800
0E1800
0E1000
071000
073000
032000
03E000
03C000
01C000
018000
018000
018000
010000
030000
020000
060000
440000
FC0000
780000
ENDCHAR
ENDFONT
